<?xml version="1.0" standalone="no"?>
<!DOCTYPE svg PUBLIC "-//W3C//DTD SVG 20010904//EN"
 "http://www.w3.org/TR/2001/REC-SVG-20010904/DTD/svg10.dtd">
<svg version="1.0" xmlns="http://www.w3.org/2000/svg"
 width="16.000000pt" height="16.000000pt" viewBox="0 0 16.000000 16.000000"
 preserveAspectRatio="xMidYMid meet">
<metadata>
Created by potrace 1.11, written by Peter Selinger 2001-2013
</metadata>
<g transform="translate(0.000000,16.000000) scale(0.002286,-0.002286)"
fill="#000000" stroke="none">
<path d="M1328 6562 c-14 -3 -15 -53 -15 -433 0 -236 -3 -432 -6 -436 -4 -3
-299 -6 -657 -6 l-652 0 5 -516 c2 -284 7 -532 11 -551 4 -19 12 -60 17 -90
26 -130 106 -318 192 -447 128 -192 321 -358 532 -457 117 -55 215 -85 375
-113 14 -2 84 -6 155 -8 139 -4 226 5 345 35 41 11 78 16 82 12 3 -4 34 -43
68 -87 158 -205 380 -399 610 -535 107 -63 263 -140 283 -140 7 0 17 -4 23 -9
13 -13 150 -58 263 -87 52 -13 97 -26 99 -29 4 -4 6 -1187 3 -1322 l-1 -31
-257 -1 c-257 0 -302 -3 -378 -23 -22 -5 -48 -12 -58 -14 -33 -6 -160 -67
-217 -104 -50 -32 -79 -55 -146 -117 -41 -38 -123 -152 -156 -217 -30 -60 -81
-196 -73 -196 3 0 0 -11 -4 -24 -13 -33 -24 -176 -14 -177 11 -1 3464 -1 3481
0 18 1 9 112 -18 217 -63 246 -229 451 -459 564 -65 32 -128 55 -176 65 -5 2
-35 8 -65 14 -33 7 -163 12 -318 13 -186 0 -262 4 -263 12 -3 48 -1 1338 3
1341 2 3 49 16 104 30 212 55 378 124 584 245 41 24 81 50 88 57 7 7 37 29 67
49 132 87 332 283 453 442 37 50 60 71 71 68 34 -10 137 -35 171 -41 71 -13
315 -13 395 0 330 54 575 188 803 437 116 128 252 387 277 528 3 19 8 37 11
41 3 5 7 23 9 41 3 18 8 44 12 58 3 14 8 260 10 546 l5 522 -656 -2 -656 -1
-1 45 c0 25 0 222 0 438 -1 359 -2 392 -17 393 -50 2 -4331 4 -4344 1z m-18
-1339 c1 -16 2 -156 4 -313 4 -360 25 -511 103 -758 20 -62 33 -116 29 -120
-4 -4 -67 -7 -139 -6 -145 0 -226 18 -339 74 -211 105 -373 303 -424 521 -18
77 -22 139 -23 372 l-2 257 396 0 395 0 0 -27z m5170 -230 c-1 -171 -6 -282
-15 -328 -30 -158 -102 -293 -219 -411 -156 -157 -375 -243 -593 -232 -51 3
-96 8 -100 12 -4 3 7 50 25 104 46 142 71 254 88 382 3 25 8 52 11 60 4 11 12
398 13 648 l0 22 395 0 396 0 -1 -257z"/>
</g>
</svg>
